<?xml version="1.0" standalone="no"?>
<!DOCTYPE svg PUBLIC "-//W3C//DTD SVG 20010904//EN"
 "http://www.w3.org/TR/2001/REC-SVG-20010904/DTD/svg10.dtd">
<svg version="1.0" xmlns="http://www.w3.org/2000/svg"
 width="512.000000pt" height="512.000000pt" viewBox="0 0 512.000000 512.000000"
 preserveAspectRatio="xMidYMid meet">

<g transform="translate(0.000000,512.000000) scale(0.100000,-0.100000)"
fill="#000000" stroke="none">
<path d="M2555 4775 c-193 -24 -320 -62 -495 -150 -429 -215 -720 -570 -821
-1003 -64 -275 -44 -676 50 -1001 57 -197 112 -321 205 -465 70 -107 109 -148
138 -144 40 5 29 66 -40 220 -236 529 -277 951 -136 1414 131 434 438 716 912
838 150 39 178 44 369 66 169 19 179 21 202 47 20 23 23 34 19 91 -6 96 -17
102 -177 101 -69 -1 -171 -7 -226 -14z"/>
<path d="M2720 4410 c-259 -35 -404 -76 -585 -165 -363 -178 -569 -518 -614
-1015 -16 -176 13 -399 79 -609 37 -116 59 -170 162 -414 86 -203 138 -382
138 -476 0 -77 -24 -163 -67 -241 -41 -75 -75 -117 -241 -292 -66 -71 -129
-147 -141 -170 -31 -66 -43 -172 -39 -356 4 -183 10 -207 61 -238 31 -18 68
-19 1087 -22 1146 -2 1134 -3 1174 51 20 27 21 41 21 250 0 293 -3 302 -135
441 -266 280 -288 339 -225 596 83 338 -10 657 -270 929 -44 46 -144 137 -222
202 -169 141 -222 194 -275 274 -32 48 -38 67 -36 100 5 63 21 67 233 61 258
-7 415 -48 655 -173 93 -48 108 -53 130 -43 23 10 241 327 272 395 23 51 3 72
-467 510 -83 77 -209 195 -280 261 -72 67 -146 131 -165 143 -42 25 -69 25
-250 1z"/>
</g>
</svg>
